<?xml version="1.0" encoding="utf-8"?>
<!-- Generator: Adobe Illustrator 25.2.3, SVG Export Plug-In . SVG Version: 6.00 Build 0)  -->
<svg version="1.1" id="Capa_1" xmlns="http://www.w3.org/2000/svg" xmlns:xlink="http://www.w3.org/1999/xlink" x="0px" y="0px"
	 viewBox="0 0 1372 256" style="enable-background:new 0 0 1372 256;" xml:space="preserve">
<style type="text/css">
	.st0{fill-rule:evenodd;clip-rule:evenodd;}
	.st1{fill:#5B360D;}
	.st2{fill-rule:evenodd;clip-rule:evenodd;fill:#5B360D;}
</style>
<g>
	<g>
		<g>
			<g>
				<path d="M294.33,58.6c-2.32,1.62-5.23,2.26-8.13,2.26c-2.51,0-4.98-0.37-7.2-1.45c-0.85-0.43-0.9-0.75-0.9-2.19
					c0-2.66,0.21-4.79,0.27-5.64c0.03-0.37,0.1-1.03,0.62-1.03c0.5,0,0.57,0.34,0.57,0.78c0,0.64,0.02,1.29,0.16,1.92
					c0.77,3.79,4.15,5.26,7.66,5.26c4.98,0,7.39-3.56,7.39-6.86c0-3.57-1.48-5.64-6.03-9.4l-2.39-1.96
					c-5.66-4.64-6.97-7.98-6.97-11.66c0-5.81,4.36-9.75,11.18-9.75c2.08,0,3.64,0.21,4.98,0.54c1.01,0.21,1.41,0.26,1.81,0.26
					c0.42,0,0.72,0.11,0.72,0.57c0,0.27-0.21,2.02-0.21,5.62c0,0.36,0.04,1.41-0.56,1.41c-0.51,0-0.57-0.48-0.62-0.86
					c-0.05-0.62-0.37-2.03-0.67-2.58c-0.29-0.53-1.66-2.71-6.46-2.71c-3.57,0-6.33,2.21-6.33,5.96c0,2.92,1.41,4.67,6.4,8.76
					l1.48,1.17c6.29,4.96,7.82,8.3,7.82,12.62C298.93,51.85,298.06,55.95,294.33,58.6z"/>
			</g>
			<g>
				<path class="st0" d="M79.72,36.87c1.89,2.13,8.58,9.58,15.44,16.98c6.27,6.74,14.79,15.44,15.44,16.03
					c3.14,3.14,3.85,3.79,4.32,3.79c0.41,0,0.53-0.3,0.53-4.2l0.12-34.67c0-3.55,0.24-4.85,2.19-5.27c0.71-0.18,1.12-0.18,1.42-0.18
					c0.41,0,0.65-0.18,0.65-0.41c0-0.35-0.41-0.41-1.07-0.41c-2.43,0-4.38,0.18-5.03,0.18c-0.65,0-3.49-0.18-6.15-0.18
					c-0.71,0-1.18,0.06-1.18,0.41c0,0.24,0.06,0.41,0.47,0.41c0.47,0,1.83,0.06,2.9,0.3c1.83,0.47,2.25,1.78,2.31,5.62l0.65,30.05
					c-1.89-1.95-8.34-9.17-14.2-15.44C89.42,40.13,80.6,30.6,79.72,29.59c-0.59-0.59-1.6-1.89-2.07-1.89s-0.65,0.65-0.65,2.96
					l-0.06,33.9c0,5.38-0.3,7.1-1.77,7.51c-0.89,0.3-1.95,0.35-2.43,0.35c-0.3,0-0.47,0.12-0.47,0.36c0,0.41,0.36,0.47,0.95,0.47
					c2.66,0,5.15-0.18,5.68-0.18s2.9,0.18,6.27,0.18c0.71,0,1.07-0.12,1.07-0.47c0-0.24-0.18-0.36-0.47-0.36
					c-0.53,0-1.83-0.06-2.96-0.35c-1.6-0.47-2.19-2.01-2.31-6.86L79.72,36.87z"/>
			</g>
			<g>
				<path class="st0" d="M140.32,45.69c0-9.23,0-10.89,0.12-12.78c0.12-2.07,0.59-3.08,2.19-3.37c0.71-0.12,1.07-0.18,1.48-0.18
					c0.24,0,0.47-0.12,0.47-0.35c0-0.35-0.3-0.47-0.95-0.47c-1.78,0-5.5,0.18-5.8,0.18c-0.3,0-4.02-0.18-5.98-0.18
					c-0.65,0-0.95,0.12-0.95,0.47c0,0.24,0.24,0.35,0.47,0.35c0.41,0,1.18,0.06,1.83,0.24c1.3,0.3,1.89,1.3,2.01,3.31
					c0.12,1.89,0.12,3.55,0.12,12.78V56.1c0,5.68,0,10.35-0.3,12.84c-0.24,1.72-0.53,3.02-1.72,3.25c-0.53,0.12-1.24,0.24-1.77,0.24
					c-0.35,0-0.47,0.18-0.47,0.36c0,0.35,0.3,0.47,0.95,0.47c1.77,0,5.5-0.18,5.8-0.18c0.3,0,4.02,0.18,7.28,0.18
					c0.65,0,0.95-0.18,0.95-0.47c0-0.18-0.12-0.36-0.47-0.36c-0.53,0-1.83-0.12-2.66-0.24c-1.77-0.24-2.13-1.54-2.31-3.25
					c-0.3-2.48-0.3-7.16-0.3-12.84V45.69z"/>
			</g>
			<g>
				<path class="st0" d="M163.06,35.75c-0.89-2.31-1.6-4.14-1.6-4.91c0-0.41,0.12-0.89,0.77-1.18c0.53-0.24,1.6-0.3,2.25-0.3
					c0.41,0,0.59-0.12,0.59-0.41c0-0.3-0.53-0.41-1.6-0.41c-2.25,0-4.91,0.18-5.5,0.18c-0.71,0-4.08-0.18-6.92-0.18
					c-0.95,0-1.54,0.06-1.54,0.41c0,0.24,0.12,0.41,0.47,0.41c0.35,0,1.36,0,2.25,0.24c2.07,0.59,2.96,1.24,4.26,4.56l14.5,36.27
					c1.12,2.84,1.42,3.67,2.13,3.67c0.59,0,0.83-0.95,2.48-4.5c1.36-2.9,4.02-9.29,7.63-17.93c3.02-7.28,5.97-14.38,6.63-16.03
					c1.6-4.02,2.48-5.03,3.25-5.56c1.12-0.71,2.43-0.71,2.84-0.71c0.47,0,0.71-0.12,0.71-0.41c0-0.3-0.35-0.41-1.01-0.41
					c-1.72,0-4.26,0.18-4.61,0.18c-0.71,0-3.43-0.18-5.8-0.18c-0.95,0-1.3,0.12-1.3,0.47c0,0.3,0.3,0.35,0.65,0.35
					c0.65,0,1.54,0,2.25,0.24c0.59,0.3,0.77,0.89,0.77,1.36c0,0.53-0.24,1.36-0.53,2.25c-1.3,4.26-9.23,24.91-12.66,32.84
					L163.06,35.75z"/>
			</g>
			<g>
				<path class="st0" d="M205.83,56.1c0,5.68,0,10.35-0.29,12.84c-0.24,1.72-0.53,3.02-1.72,3.25c-0.53,0.12-1.24,0.24-1.77,0.24
					c-0.35,0-0.47,0.18-0.47,0.36c0,0.35,0.3,0.47,0.95,0.47c1.77,0,5.5-0.18,5.8-0.18c1.72,0,5.68,0.35,14.61,0.35
					c2.31,0,2.78,0,3.19-1.54c0.3-1.24,0.77-5.27,0.77-5.74c0-0.41,0-0.89-0.35-0.89c-0.3,0-0.42,0.24-0.53,0.89
					c-0.41,2.43-1.12,3.61-2.66,4.26c-1.54,0.65-4.14,0.65-5.68,0.65c-5.8,0-6.69-0.77-6.86-4.85c-0.06-1.24,0-8.11,0-10.12v-5.21
					c0-0.24,0.12-0.41,0.41-0.41c1.01,0,6.86,0.12,8.46,0.3c2.31,0.24,2.84,1.24,3.08,2.07c0.24,0.77,0.24,1.36,0.24,1.95
					c0,0.3,0.12,0.53,0.41,0.53c0.41,0,0.41-0.65,0.41-1.12c0-0.41,0.12-2.6,0.24-3.79c0.18-1.95,0.47-2.96,0.47-3.31
					s-0.12-0.47-0.3-0.47c-0.24,0-0.47,0.3-0.89,0.77c-0.53,0.59-1.36,0.71-2.78,0.83c-1.36,0.12-8.64,0.12-9.41,0.12
					c-0.3,0-0.35-0.18-0.35-0.59V31.43c0-0.41,0.12-0.59,0.35-0.59c0.65,0,7.1,0.06,8.11,0.18c3.19,0.35,3.79,1.07,4.2,2.01
					c0.3,0.71,0.36,1.72,0.36,2.13c0,0.47,0.12,0.77,0.47,0.77c0.24,0,0.35-0.35,0.41-0.65c0.12-0.71,0.24-3.31,0.3-3.9
					c0.18-1.66,0.47-2.37,0.47-2.78c0-0.3-0.06-0.53-0.24-0.53c-0.3,0-0.53,0.24-0.83,0.3c-0.47,0.12-1.42,0.24-2.54,0.3
					c-1.36,0.06-13.13,0.06-13.55,0.06c-0.3,0-4.02-0.18-6.69-0.18c-0.65,0-0.95,0.12-0.95,0.47c0,0.24,0.24,0.35,0.47,0.35
					c0.53,0,1.54,0.06,2.01,0.18c1.95,0.41,2.43,1.36,2.54,3.37c0.12,1.89,0.12,3.55,0.12,12.78V56.1z"/>
			</g>
			<g>
				<path class="st0" d="M315.43,45.69c0-9.23,0-10.89,0.12-12.78c0.12-2.07,0.59-3.08,2.19-3.37c0.71-0.12,1.06-0.18,1.48-0.18
					c0.24,0,0.47-0.12,0.47-0.35c0-0.35-0.3-0.47-0.95-0.47c-1.77,0-5.5,0.18-5.8,0.18c-0.3,0-4.02-0.18-5.98-0.18
					c-0.65,0-0.95,0.12-0.95,0.47c0,0.24,0.24,0.35,0.47,0.35c0.42,0,1.18,0.06,1.83,0.24c1.3,0.3,1.89,1.3,2.01,3.31
					c0.12,1.89,0.12,3.55,0.12,12.78V56.1c0,5.68,0,10.35-0.3,12.84c-0.24,1.72-0.53,3.02-1.72,3.25c-0.53,0.12-1.24,0.24-1.77,0.24
					c-0.36,0-0.47,0.18-0.47,0.36c0,0.35,0.29,0.47,0.95,0.47c1.77,0,5.5-0.18,5.8-0.18c0.3,0,4.02,0.18,7.28,0.18
					c0.65,0,0.95-0.18,0.95-0.47c0-0.18-0.12-0.36-0.47-0.36c-0.53,0-1.83-0.12-2.66-0.24c-1.78-0.24-2.13-1.54-2.31-3.25
					c-0.3-2.48-0.3-7.16-0.3-12.84V45.69z"/>
			</g>
			<g>
				<path class="st0" d="M30.77,23.7c-1.15-2.98-2.06-5.35-2.06-6.35c0-0.54,0.15-1.15,0.99-1.53c0.69-0.31,2.07-0.38,2.91-0.38
					c0.54,0,0.77-0.15,0.77-0.54c0-0.38-0.69-0.54-2.06-0.54c-2.91,0-6.35,0.23-7.11,0.23c-0.92,0-5.28-0.23-8.95-0.23
					c-1.22,0-1.99,0.08-1.99,0.54c0,0.31,0.15,0.54,0.61,0.54c0.46,0,1.76,0,2.91,0.31c2.68,0.76,3.82,1.61,5.51,5.89l18.74,46.88
					c1.45,3.67,1.84,4.74,2.75,4.74c0.76,0,1.07-1.22,3.21-5.81c1.76-3.75,5.2-12.01,9.87-23.17c3.9-9.41,7.72-18.58,8.56-20.72
					c2.06-5.2,3.21-6.5,4.21-7.19c1.45-0.92,3.13-0.92,3.67-0.92c0.61,0,0.92-0.15,0.92-0.54c0-0.38-0.46-0.54-1.3-0.54
					c-2.22,0-5.51,0.23-5.97,0.23c-0.92,0-4.44-0.23-7.49-0.23c-1.22,0-1.68,0.15-1.68,0.61c0,0.38,0.38,0.46,0.84,0.46
					c0.84,0,1.99,0,2.91,0.31c0.76,0.38,0.99,1.15,0.99,1.76c0,0.69-0.31,1.76-0.69,2.91c-1.68,5.51-11.93,32.19-16.36,42.44
					L30.77,23.7z"/>
			</g>
			<path class="st0" d="M413.12,72.78c-0.06-0.3-0.31-0.36-0.67-0.36c-0.59,0-1.49-0.06-2.44-0.35c-1.32-0.35-3.23-1.3-6.47-6.57
				c-5.5-8.99-19.93-33.43-21.29-35.68c-1.09-1.83-1.39-2.13-1.75-2.13c-0.35,0-0.52,0.35-0.82,2.31l-5.71,36.74
				c-0.44,2.96-1.15,5.21-3.8,5.56c-0.46,0.06-1.28,0.12-1.69,0.12c-0.3,0-0.51,0.12-0.46,0.36c0.08,0.35,0.46,0.47,1.23,0.47
				c2.78,0,6-0.18,6.65-0.18c0.65,0,3.23,0.18,4.65,0.18c0.53,0,0.86-0.12,0.79-0.47c-0.05-0.24-0.25-0.36-0.67-0.36h-0.59
				c-1.01,0-2.36-0.53-2.61-1.72c-0.22-1.06-0.23-2.48-0.01-3.96l1.35-10.47c0.06-0.3,0.2-0.47,0.49-0.47h12.72
				c0.3,0,0.44,0.12,0.61,0.36l8.56,14.55c0.55,0.95,0.31,1.48-0.02,1.6c-0.22,0.06-0.38,0.18-0.33,0.41
				c0.08,0.36,0.73,0.36,1.86,0.41c4.11,0.12,8.43,0.12,9.31,0.12C412.69,73.26,413.2,73.14,413.12,72.78z M390.82,53.67h-11.3
				c-0.18,0-0.32-0.12-0.27-0.41l1.85-15.97c0.11-0.89,0.41-0.89,0.89,0l8.98,15.97C391.08,53.5,391.12,53.67,390.82,53.67z"/>
			<path class="st0" d="M349.3,31.07l7.46,0.12c5.68,0.12,7.04,1.48,7.28,3.25l0.06,0.65c0.06,0.83,0.18,1.01,0.47,1.01
				c0.24,0,0.41-0.24,0.41-0.77c0-0.65,0.18-4.73,0.18-6.51c0-0.36,0-0.71-0.3-0.71c-0.47,0-2.07,0.59-5.86,0.59h-22.19
				c-0.71,0-2.96-0.12-4.67-0.3c-1.6-0.12-2.19-0.71-2.6-0.71c-0.24,0-0.47,0.77-0.59,1.12c-0.12,0.47-1.3,5.56-1.3,6.15
				c0,0.35,0.12,0.53,0.3,0.53c0.24,0,0.41-0.12,0.59-0.59c0.18-0.41,0.36-0.83,1.01-1.83c0.95-1.42,2.37-1.83,6.03-1.89l8.76-0.12
				V56.1c0,5.68,0,10.35-0.3,12.84c-0.24,1.72-0.53,3.02-1.72,3.25c-0.53,0.12-1.24,0.24-1.77,0.24c-0.35,0-0.47,0.18-0.47,0.36
				c0,0.35,0.3,0.47,0.95,0.47c1.77,0,5.5-0.18,5.8-0.18c0.29,0,4.02,0.18,7.28,0.18c0.65,0,0.95-0.18,0.95-0.47
				c0-0.18-0.12-0.36-0.47-0.36c-0.53,0-1.83-0.12-2.66-0.24c-1.78-0.24-2.13-1.54-2.31-3.25c-0.3-2.48-0.3-7.16-0.3-12.84V31.07z"
				/>
			<path class="st0" d="M427.38,31.07l7.45,0.12c5.68,0.12,7.04,1.48,7.28,3.25l0.06,0.65c0.06,0.83,0.18,1.01,0.47,1.01
				c0.24,0,0.41-0.24,0.41-0.77c0-0.65,0.18-4.73,0.18-6.51c0-0.36,0-0.71-0.29-0.71c-0.47,0-2.07,0.59-5.86,0.59h-22.19
				c-0.71,0-2.96-0.12-4.67-0.3c-1.6-0.12-2.19-0.71-2.6-0.71c-0.24,0-0.47,0.77-0.59,1.12c-0.12,0.47-1.3,5.56-1.3,6.15
				c0,0.35,0.12,0.53,0.3,0.53c0.24,0,0.41-0.12,0.59-0.59c0.18-0.41,0.36-0.83,1.01-1.83c0.95-1.42,2.37-1.83,6.03-1.89l8.76-0.12
				V56.1c0,5.68,0,10.35-0.3,12.84c-0.24,1.72-0.53,3.02-1.72,3.25c-0.53,0.12-1.24,0.24-1.78,0.24c-0.36,0-0.47,0.18-0.47,0.36
				c0,0.35,0.3,0.47,0.95,0.47c1.77,0,5.5-0.18,5.8-0.18c0.3,0,4.02,0.18,7.28,0.18c0.65,0,0.95-0.18,0.95-0.47
				c0-0.18-0.12-0.36-0.47-0.36c-0.53,0-1.83-0.12-2.66-0.24c-1.77-0.24-2.13-1.54-2.31-3.25c-0.3-2.48-0.3-7.16-0.3-12.84V31.07z"
				/>
			<path class="st0" d="M293.74,69.39c-1.48,0.4-2.54,1.61-4,1.96c-5.62,1.12-12.14,2.31-15.59-3.16
				c-3.43-5.64-7.21-12.8-13.94-14.99c5.31-4.9,7.14-9.27,7.14-13.65c0-4.08-2.6-6.98-4.08-8.05c-3.14-2.25-7.1-2.6-10.83-2.6
				c-1.83,0-6.33,0.18-6.98,0.18c-0.3,0-4.02-0.18-6.69-0.18c-0.65,0-0.95,0.12-0.95,0.47c0,0.24,0.24,0.36,0.47,0.36
				c0.53,0,1.54,0.06,2.01,0.18c1.95,0.41,2.43,1.36,2.54,3.37c0.12,1.89,0.12,3.55,0.12,12.78v10.41c0,5.68,0,10.35-0.3,12.84
				c-0.24,1.72-0.53,3.02-1.71,3.25c-0.53,0.12-1.24,0.24-1.77,0.24c-0.36,0-0.47,0.18-0.47,0.35c0,0.36,0.3,0.47,0.95,0.47
				c1.77,0,5.5-0.18,5.56-0.18c0.3,0,4.02,0.18,7.28,0.18c0.65,0,0.95-0.18,0.95-0.47c0-0.18-0.12-0.35-0.47-0.35
				c-0.53,0-1.83-0.12-2.66-0.24c-1.77-0.24-2.13-1.54-2.31-3.25c-0.3-2.48-0.3-7.16-0.3-12.84v-1.42c0-0.3,0.12-0.47,0.41-0.47
				l7.28,0.12c6.01,3.96,8.89,10.33,13.38,15.55c5.44,5.86,14.29,6.05,20.88,3.25C291.12,72.38,294.04,71.45,293.74,69.39z
				 M258.76,51.74c-1.36,0.95-3.02,1.12-4.44,1.12c-2.6,0-5.32-0.41-6.21-0.95c-0.29-0.18-0.41-0.41-0.41-0.71V31.87
				c0-0.35,0.18-0.59,0.47-0.71c0.59-0.18,2.19-0.35,3.96-0.35c6.33,0,10.24,4.44,10.24,11.83
				C262.37,47.13,260.83,50.33,258.76,51.74z"/>
		</g>
		<g>
			<path class="st0" d="M84.69,106.71c-8.54-7.22-21.68-6.69-28.79-6.69c-4.31,0-8.83,0.18-9.69,0.18c-0.36,0-4.88-0.18-8.11-0.18
				c-0.79,0-1.15,0.12-1.15,0.47c0,0.23,0.29,0.35,0.57,0.35c0.65,0,1.87,0.06,2.44,0.18c2.37,0.41,2.94,1.35,3.09,3.35
				c0.14,1.88,0.14,3.52,0.14,12.68v10.33c0,5.63,0,10.27-0.36,12.74c-0.29,1.7-0.65,2.99-2.08,3.23c-0.65,0.12-1.51,0.24-2.15,0.24
				c-0.43,0-0.57,0.18-0.57,0.35c0,0.35,0.36,0.47,1.15,0.47c2.15,0,6.68-0.18,7.04-0.18c0.72,0,9.76,0.7,15.94,0.7
				c12.2,0,18.67-4.11,21.75-6.75c4.02-3.46,7.75-9.15,7.75-16.55C91.65,114.64,88.28,109.77,84.69,106.71z M81.87,137.46
				c-4.23,3.46-12.83,5.46-19.51,5.46c-8.47,0-11.27-1.23-12.2-2.35c-0.57-0.65-0.72-2.99-0.79-4.46
				c-0.07-1.12-0.14-6.52-0.14-12.74v-7.28c0-4.52,0-10.51,0.07-12.5c0-0.65,0.22-0.94,0.86-1.17c0.57-0.23,3.23-0.41,4.67-0.41
				c8.54,0,19.15,0.82,25.9,6.63c2.94,2.52,6.89,7.34,6.89,14.79C87.61,128.84,85.6,134.47,81.87,137.46z"/>
			<g>
				<path class="st0" d="M60.78,126.17c0,3.64,0,6.63-0.19,8.22c-0.15,1.1-0.34,1.93-1.1,2.08c-0.34,0.08-0.8,0.15-1.14,0.15
					c-0.23,0-0.3,0.11-0.3,0.23c0,0.23,0.19,0.3,0.61,0.3c1.14,0,3.52-0.11,3.71-0.11c1.1,0,3.64,0.23,9.36,0.23
					c1.48,0,1.78,0,2.05-0.98c0.19-0.8,0.49-3.37,0.49-3.68c0-0.27,0-0.57-0.23-0.57c-0.19,0-0.27,0.15-0.34,0.57
					c-0.26,1.55-0.72,2.31-1.7,2.73c-0.98,0.42-2.65,0.42-3.64,0.42c-3.71,0-4.28-0.49-4.39-3.11c-0.04-0.79,0-5.19,0-6.48v-3.33
					c0-0.15,0.08-0.27,0.27-0.27c0.64,0,4.39,0.08,5.42,0.19c1.48,0.15,1.82,0.79,1.97,1.33c0.15,0.49,0.15,0.87,0.15,1.25
					c0,0.19,0.08,0.34,0.27,0.34c0.26,0,0.26-0.42,0.26-0.72c0-0.27,0.08-1.67,0.15-2.42c0.11-1.25,0.3-1.89,0.3-2.12
					c0-0.23-0.08-0.3-0.19-0.3c-0.15,0-0.3,0.19-0.57,0.49c-0.34,0.38-0.87,0.45-1.78,0.53c-0.87,0.08-5.53,0.08-6.02,0.08
					c-0.19,0-0.23-0.11-0.23-0.38v-10.45c0-0.27,0.08-0.38,0.23-0.38c0.42,0,4.55,0.04,5.19,0.11c2.05,0.23,2.43,0.68,2.69,1.29
					c0.19,0.45,0.23,1.1,0.23,1.36c0,0.3,0.08,0.49,0.3,0.49c0.15,0,0.23-0.23,0.27-0.42c0.08-0.46,0.15-2.12,0.19-2.5
					c0.11-1.06,0.3-1.51,0.3-1.78c0-0.19-0.04-0.34-0.15-0.34c-0.19,0-0.34,0.15-0.53,0.19c-0.3,0.08-0.91,0.15-1.63,0.19
					c-0.87,0.04-8.41,0.04-8.67,0.04c-0.19,0-2.58-0.11-4.28-0.11c-0.42,0-0.61,0.08-0.61,0.3c0,0.15,0.15,0.23,0.3,0.23
					c0.34,0,0.99,0.04,1.29,0.11c1.25,0.27,1.55,0.87,1.63,2.16c0.08,1.21,0.08,2.27,0.08,8.18V126.17z"/>
			</g>
		</g>
		<g>
			<g>
				<path class="st0" d="M268.07,95.33c0.3,0,0.53-0.12,0.53-0.3c0-0.24-0.53-0.41-1.12-0.83c-2.43-1.54-6.66-4.47-7.13-4.94
					c-0.53-0.53-0.59-0.95-0.89-0.95c-0.24,0-0.47,0.12-0.95,0.3c-0.71,0.3-2.31,0.77-3.55,1.12c-0.41,0.12-0.65,0.18-0.65,0.47
					c0,0.29,0.47,0.53,1.72,1C256.98,91.57,267.01,95.33,268.07,95.33z"/>
				<path class="st0" d="M256.36,127.45c0,5.68,0,10.35-0.3,12.84c-0.24,1.71-0.53,3.02-1.72,3.25c-0.53,0.12-1.24,0.24-1.77,0.24
					c-0.35,0-0.47,0.18-0.47,0.35c0,0.36,0.3,0.47,0.95,0.47c1.77,0,5.5-0.18,5.8-0.18c1.72,0,5.68,0.36,14.61,0.36
					c2.31,0,2.78,0,3.19-1.54c0.3-1.24,0.77-5.27,0.77-5.74c0-0.41,0-0.89-0.35-0.89c-0.3,0-0.41,0.24-0.53,0.89
					c-0.41,2.43-1.12,3.61-2.66,4.26c-1.54,0.65-4.14,0.65-5.68,0.65c-5.8,0-6.68-0.77-6.86-4.85c-0.06-1.24,0-8.1,0-10.12v-5.21
					c0-0.24,0.12-0.41,0.41-0.41c1.01,0,6.86,0.12,8.46,0.3c2.31,0.24,2.84,1.24,3.08,2.07c0.24,0.77,0.24,1.36,0.24,1.95
					c0,0.3,0.12,0.53,0.41,0.53c0.41,0,0.41-0.65,0.41-1.12c0-0.41,0.12-2.6,0.24-3.79c0.18-1.95,0.47-2.96,0.47-3.31
					c0-0.35-0.12-0.47-0.3-0.47c-0.24,0-0.47,0.3-0.89,0.77c-0.53,0.59-1.36,0.71-2.78,0.83c-1.36,0.12-8.64,0.12-9.41,0.12
					c-0.29,0-0.35-0.18-0.35-0.59v-16.33c0-0.41,0.12-0.59,0.35-0.59c0.65,0,7.1,0.06,8.11,0.18c3.2,0.35,3.79,1.07,4.2,2.01
					c0.3,0.71,0.35,1.72,0.35,2.13c0,0.47,0.12,0.77,0.47,0.77c0.24,0,0.35-0.35,0.41-0.65c0.12-0.71,0.24-3.31,0.3-3.9
					c0.18-1.66,0.47-2.37,0.47-2.78c0-0.3-0.06-0.53-0.24-0.53c-0.3,0-0.53,0.24-0.83,0.3c-0.47,0.12-1.42,0.24-2.54,0.3
					c-1.36,0.06-13.13,0.06-13.55,0.06c-0.3,0-4.02-0.18-6.69-0.18c-0.65,0-0.95,0.12-0.95,0.47c0,0.24,0.24,0.35,0.47,0.35
					c0.53,0,1.54,0.06,2.01,0.18c1.95,0.41,2.42,1.36,2.54,3.37c0.12,1.89,0.12,3.55,0.12,12.78V127.45z"/>
			</g>
			<g>
				<path class="st0" d="M136.88,94.86c-1.15-2.98-2.06-5.35-2.06-6.35c0-0.54,0.15-1.15,0.99-1.53c0.69-0.31,2.07-0.38,2.91-0.38
					c0.54,0,0.77-0.15,0.77-0.53c0-0.38-0.69-0.54-2.06-0.54c-2.91,0-6.35,0.23-7.11,0.23c-0.92,0-5.28-0.23-8.95-0.23
					c-1.22,0-1.99,0.08-1.99,0.54c0,0.3,0.15,0.53,0.61,0.53c0.46,0,1.76,0,2.91,0.31c2.68,0.76,3.82,1.61,5.51,5.89l18.74,46.88
					c1.45,3.67,1.83,4.74,2.75,4.74c0.76,0,1.07-1.22,3.21-5.81c1.76-3.75,5.2-12.01,9.87-23.17c3.9-9.41,7.72-18.58,8.56-20.72
					c2.06-5.2,3.21-6.5,4.21-7.19c1.45-0.92,3.13-0.92,3.67-0.92c0.61,0,0.92-0.15,0.92-0.53c0-0.38-0.46-0.54-1.3-0.54
					c-2.22,0-5.51,0.23-5.97,0.23c-0.92,0-4.44-0.23-7.49-0.23c-1.22,0-1.68,0.15-1.68,0.61c0,0.38,0.38,0.46,0.84,0.46
					c0.84,0,1.99,0,2.91,0.31c0.76,0.38,0.99,1.15,0.99,1.76c0,0.69-0.31,1.76-0.69,2.91c-1.68,5.51-11.93,32.2-16.37,42.44
					L136.88,94.86z"/>
			</g>
			<path class="st0" d="M459.42,144.28c-0.06-0.3-0.31-0.36-0.67-0.36c-0.59,0-1.49-0.06-2.44-0.35c-1.32-0.35-3.23-1.3-6.47-6.57
				c-5.5-8.99-19.93-33.43-21.28-35.68c-1.1-1.84-1.39-2.13-1.75-2.13c-0.35,0-0.52,0.35-0.82,2.31l-5.71,36.74
				c-0.44,2.96-1.15,5.21-3.8,5.56c-0.46,0.06-1.28,0.12-1.69,0.12c-0.3,0-0.51,0.12-0.46,0.36c0.07,0.35,0.45,0.47,1.22,0.47
				c2.78,0,6-0.18,6.65-0.18c0.65,0,3.23,0.18,4.65,0.18c0.53,0,0.86-0.12,0.79-0.47c-0.05-0.24-0.25-0.36-0.67-0.36h-0.59
				c-1.01,0-2.36-0.53-2.61-1.71c-0.22-1.07-0.23-2.49-0.01-3.96l1.35-10.47c0.06-0.3,0.2-0.47,0.49-0.47h12.72
				c0.3,0,0.44,0.12,0.61,0.35l8.56,14.55c0.55,0.95,0.31,1.48-0.02,1.6c-0.22,0.06-0.38,0.18-0.33,0.41
				c0.07,0.35,0.73,0.35,1.86,0.41c4.11,0.12,8.43,0.12,9.31,0.12C458.98,144.76,459.49,144.64,459.42,144.28z M437.12,125.17h-11.3
				c-0.18,0-0.32-0.12-0.26-0.41l1.85-15.97c0.11-0.89,0.4-0.89,0.89,0l8.98,15.97C437.38,124.99,437.41,125.17,437.12,125.17z"/>
			<path class="st0" d="M207.71,143.66c-0.59,0-1.48-0.06-2.37-0.35c-1.24-0.36-2.96-1.3-5.09-6.57
				c-3.61-8.99-12.9-33.43-13.78-35.68c-0.71-1.83-0.95-2.13-1.3-2.13c-0.35,0-0.59,0.35-1.3,2.31l-13.43,36.74
				c-1.06,2.96-2.25,5.21-4.97,5.56c-0.47,0.06-1.3,0.12-1.72,0.12c-0.3,0-0.53,0.12-0.53,0.36c0,0.35,0.35,0.47,1.12,0.47
				c2.78,0,6.03-0.18,6.68-0.18c0.65,0,3.2,0.18,4.62,0.18c0.53,0,0.89-0.12,0.89-0.47c0-0.24-0.18-0.36-0.59-0.36h-0.59
				c-1.01,0-2.25-0.53-2.25-1.71c0-1.07,0.3-2.49,0.83-3.96l3.55-10.47c0.12-0.3,0.3-0.47,0.59-0.47h12.72
				c0.3,0,0.41,0.12,0.53,0.35l5.5,14.55c0.35,0.95,0,1.48-0.35,1.6c-0.24,0.06-0.41,0.18-0.41,0.41c0,0.36,0.65,0.36,1.78,0.41
				c4.08,0.12,8.4,0.12,9.29,0.12c0.65,0,1.18-0.12,1.18-0.47C208.31,143.71,208.07,143.66,207.71,143.66z M190.02,124.9h-11.3
				c-0.18,0-0.3-0.12-0.18-0.41l5.21-15.97c0.3-0.89,0.59-0.89,0.89,0l5.62,15.97C190.32,124.72,190.32,124.9,190.02,124.9z"/>
			<path class="st0" d="M224.71,117.04c0-9.23,0-10.89,0.12-12.78c0.12-2.07,0.59-3.08,2.31-3.37c0.71-0.12,1.54-0.18,1.95-0.18
				c0.24,0,0.47-0.12,0.47-0.35c0-0.35-0.3-0.47-0.95-0.47c-1.77,0-6.09,0.18-6.39,0.18c-0.3,0-4.02-0.18-6.69-0.18
				c-0.65,0-0.95,0.12-0.95,0.47c0,0.24,0.24,0.35,0.47,0.35c0.53,0,1.54,0.06,2.01,0.18c1.95,0.41,2.43,1.36,2.54,3.37
				c0.12,1.89,0.12,3.55,0.12,12.78v10.41c0,5.68,0,10.35-0.3,12.84c-0.24,1.71-0.53,3.02-1.72,3.25c-0.53,0.12-1.24,0.24-1.77,0.24
				c-0.36,0-0.47,0.18-0.47,0.35c0,0.36,0.3,0.47,0.95,0.47c1.78,0,5.27-0.18,5.8-0.18c3.43,0,7.34,0.36,15.86,0.36
				c3.14,0,3.31-0.24,3.73-1.6c0.47-1.72,0.89-5.27,0.89-5.92c0-0.65-0.06-0.89-0.35-0.89c-0.35,0-0.47,0.3-0.53,0.77
				c-0.18,1.12-0.77,2.6-1.54,3.55c-1.42,1.72-4.02,1.78-7.16,1.78c-4.62,0-6.15-0.41-7.1-1.36c-1.06-1.07-1.3-4.85-1.3-13.55
				V117.04z"/>
			<path class="st0" d="M295.54,108.23c1.89,2.13,8.58,9.58,15.44,16.98c6.27,6.74,14.79,15.44,15.44,16.03
				c3.13,3.14,3.85,3.79,4.32,3.79c0.41,0,0.53-0.3,0.53-4.2l0.12-34.67c0-3.55,0.24-4.85,2.19-5.27c0.71-0.18,1.12-0.18,1.42-0.18
				c0.41,0,0.65-0.18,0.65-0.41c0-0.35-0.41-0.42-1.07-0.42c-2.43,0-4.38,0.18-5.03,0.18c-0.65,0-3.49-0.18-6.15-0.18
				c-0.71,0-1.18,0.06-1.18,0.42c0,0.24,0.06,0.41,0.47,0.41c0.47,0,1.83,0.06,2.9,0.3c1.83,0.47,2.25,1.77,2.31,5.62l0.65,30.05
				c-1.89-1.95-8.34-9.17-14.2-15.44c-9.11-9.76-17.93-19.29-18.81-20.29c-0.59-0.59-1.6-1.89-2.07-1.89
				c-0.47,0-0.65,0.65-0.65,2.96l-0.06,33.9c0,5.38-0.3,7.1-1.77,7.51c-0.89,0.3-1.95,0.35-2.43,0.35c-0.3,0-0.47,0.12-0.47,0.35
				c0,0.41,0.35,0.47,0.95,0.47c2.66,0,5.15-0.18,5.68-0.18c0.53,0,2.9,0.18,6.27,0.18c0.71,0,1.07-0.12,1.07-0.47
				c0-0.24-0.18-0.35-0.47-0.35c-0.53,0-1.84-0.06-2.96-0.35c-1.6-0.47-2.19-2.01-2.31-6.86L295.54,108.23z"/>
			<path class="st0" d="M371.11,145.44c3.79,0,8.28-0.41,10.65-1.36c1.06-0.47,1.18-0.59,1.54-1.72c0.59-2.01,1.3-7.16,1.3-7.57
				c0-0.47-0.12-0.89-0.41-0.89c-0.36,0-0.47,0.24-0.59,0.89c-0.18,1.06-0.95,3.67-2.19,4.97c-2.37,2.43-5.86,2.96-10.29,2.96
				c-12.66,0-21.36-10.35-21.36-21.66c0-6.03,1.01-11.3,5.32-15.44c2.07-2.01,5.74-4.32,13.61-4.32c5.21,0,9.76,1.6,11.83,3.37
				c1.54,1.3,2.49,3.73,2.49,6.03c0,0.83,0.06,1.24,0.47,1.24c0.36,0,0.47-0.35,0.53-1.24c0.06-0.89,0.06-4.14,0.18-6.09
				c0.12-2.13,0.3-2.84,0.3-3.31c0-0.35-0.12-0.59-0.77-0.65c-1.89-0.12-3.79-0.47-6.03-0.89c-2.9-0.53-6.21-0.71-8.58-0.71
				c-9.11,0-14.5,2.78-18.04,6.33c-5.27,5.27-6.63,12.19-6.63,16.15c0,5.62,1.42,12.36,7.16,17.51
				C356.27,143.25,362.24,145.44,371.11,145.44z"/>
			<path class="st0" d="M404.15,117.04c0-9.23,0-10.89,0.12-12.78c0.12-2.07,0.59-3.08,2.19-3.37c0.71-0.12,1.07-0.18,1.48-0.18
				c0.24,0,0.47-0.12,0.47-0.35c0-0.35-0.3-0.47-0.95-0.47c-1.77,0-5.5,0.18-5.8,0.18c-0.3,0-4.02-0.18-5.98-0.18
				c-0.65,0-0.95,0.12-0.95,0.47c0,0.24,0.24,0.35,0.47,0.35c0.41,0,1.18,0.06,1.83,0.24c1.3,0.3,1.89,1.3,2.01,3.31
				c0.12,1.89,0.12,3.55,0.12,12.78v10.41c0,5.68,0,10.35-0.3,12.84c-0.24,1.71-0.53,3.02-1.72,3.25c-0.53,0.12-1.24,0.24-1.77,0.24
				c-0.36,0-0.47,0.18-0.47,0.35c0,0.36,0.3,0.47,0.95,0.47c1.78,0,5.5-0.18,5.8-0.18c0.3,0,4.02,0.18,7.28,0.18
				c0.65,0,0.95-0.18,0.95-0.47c0-0.18-0.12-0.35-0.47-0.35c-0.53,0-1.83-0.12-2.66-0.24c-1.77-0.24-2.13-1.54-2.31-3.25
				c-0.3-2.49-0.3-7.16-0.3-12.84V117.04z"/>
		</g>
	</g>
	<g>
		<path class="st1" d="M642.69,83.08c0.05-0.88,0.07-1.54,0.07-2.2c0-0.66-0.02-1.32-0.07-1.97l-5.15-1.49
			c-0.24-1.53-0.65-3-1.19-4.4l3.81-3.64c-0.4-0.78-0.72-1.37-1.05-1.94c-0.34-0.57-0.69-1.13-1.06-1.67l-5.21,1.25
			c-0.97-1.18-2.07-2.26-3.27-3.22l1.46-5.03c-0.75-0.48-1.31-0.83-1.9-1.16c-0.58-0.33-1.17-0.64-1.77-0.92l-3.88,3.65
			c-1.43-0.54-2.92-0.94-4.47-1.18l-1.29-5.07c-0.89-0.05-1.56-0.07-2.23-0.07c-0.67,0-1.34,0.02-2,0.07l-1.51,5.07
			c-1.55,0.24-3.05,0.64-4.48,1.18l-3.68-3.75c-0.8,0.4-1.39,0.71-1.97,1.04c-0.58,0.33-1.15,0.68-1.7,1.05l1.26,5.13
			c-1.2,0.96-2.29,2.04-3.26,3.22l-5.1-1.44c-0.49,0.74-0.84,1.29-1.18,1.87c-0.34,0.58-0.65,1.16-0.94,1.75l3.69,3.82
			c-0.54,1.4-0.95,2.87-1.19,4.4l-5.14,1.27c-0.05,0.88-0.07,1.54-0.07,2.2c0,0.67,0.02,1.32,0.07,1.98l5.15,1.49
			c0.25,1.52,0.65,2.99,1.19,4.39l-3.81,3.63c0.4,0.78,0.72,1.37,1.05,1.94c0.34,0.58,0.69,1.13,1.07,1.67l5.22-1.24
			c0.97,1.18,2.06,2.25,3.26,3.21l-1.46,5.03c0.75,0.48,1.31,0.83,1.9,1.16c0.58,0.33,1.18,0.64,1.77,0.92l3.89-3.64
			c1.42,0.53,2.91,0.93,4.45,1.17l1.29,5.07c0.89,0.05,1.56,0.07,2.23,0.07c0.67,0,1.34-0.02,2-0.07l1.52-5.07
			c1.54-0.24,3.03-0.64,4.44-1.17l3.7,3.77c0.8-0.4,1.39-0.71,1.97-1.04c0.58-0.33,1.15-0.68,1.7-1.05l-1.27-5.15
			c1.2-0.96,2.29-2.03,3.26-3.21l5.12,1.44c0.49-0.74,0.84-1.29,1.18-1.87c0.34-0.57,0.65-1.16,0.94-1.74l-3.71-3.83
			c0.55-1.4,0.95-2.88,1.2-4.4L642.69,83.08z M615.48,91.87c-6.17,0-11.16-4.93-11.16-11c0-6.08,5-11,11.16-11
			c6.16,0,11.16,4.92,11.16,11C626.65,86.94,621.65,91.87,615.48,91.87z"/>
		<path class="st1" d="M600.94,52.98c0.05-0.88,0.07-1.54,0.07-2.2c0-0.66-0.02-1.32-0.07-1.97l-5.36-1.55
			c-0.16-0.47-0.35-0.91-0.57-1.35l2.84-4.67c-0.6-0.66-1.05-1.14-1.53-1.61c-0.48-0.47-0.97-0.92-1.47-1.34l-4.9,2.64
			c-0.44-0.22-0.9-0.39-1.37-0.55l-1.34-5.28c-0.89-0.05-1.56-0.07-2.23-0.07c-0.67,0-1.34,0.02-2,0.07l-1.57,5.28
			c-0.47,0.15-0.92,0.34-1.35,0.55l-4.9-2.64c-0.5,0.43-0.99,0.87-1.47,1.34c-0.48,0.47-0.93,0.95-1.53,1.61l2.83,4.64
			c-0.23,0.44-0.42,0.9-0.59,1.38l-5.33,1.54c-0.05,0.65-0.07,1.31-0.07,1.98c0,0.66,0.03,1.32,0.07,2.2l5.32,1.31
			c0.16,0.48,0.36,0.94,0.58,1.38l-2.67,4.8c0.43,0.49,0.89,0.98,1.36,1.45c0.48,0.47,0.97,0.92,1.63,1.5l4.71-2.78
			c0.45,0.22,0.91,0.39,1.39,0.55l1.57,5.28c0.66,0.05,1.33,0.07,2,0.07c0.67,0,1.34-0.02,2.23-0.07l1.34-5.28
			c0.48-0.16,0.94-0.35,1.39-0.57l4.74,2.8c0.66-0.59,1.15-1.03,1.63-1.5c0.48-0.47,0.93-0.95,1.36-1.45l-2.68-4.83
			c0.22-0.44,0.4-0.88,0.56-1.35L600.94,52.98z M585.02,56.29c-3.08,0-5.58-2.46-5.58-5.5c0-3.04,2.5-5.5,5.58-5.5
			c3.08,0,5.58,2.46,5.58,5.5C590.6,53.82,588.1,56.29,585.02,56.29z"/>
		<path class="st2" d="M498.87,27.22h-2.9c-15.91,0-18.06,11.65-18.06,24.89v67.74c0,13.24,2.15,24.89,18.06,24.89h2.9v-7.94h-2.9
			c-8.92,0-8.92-10.59-8.92-16.95V52.11c0-6.36,0-16.95,8.92-16.95h2.9V27.22z"/>
		<path class="st2" d="M648.5,35.16h2.9c8.92,0,8.92,10.59,8.92,16.95v67.74c0,6.36,0,16.95-8.92,16.95h-2.9v7.94h2.9
			c15.91,0,18.06-11.65,18.06-24.89V52.11c0-13.24-2.15-24.89-18.06-24.89h-2.9V35.16z"/>
		<path class="st1" d="M573.16,78.75c-4.33-0.57-10.38,0.95-15.42,0.45c-0.1-0.37-0.14-0.74-0.18-1.11l-0.85-4.57
			c-0.99-5.48-2.59-10.72-5.12-15.71c-3.3-4.94-8.5-9.79-15.17-9.52c-7.96,1.18-14.9,8.98-17.67,15.97
			c-5.55,13.99-9.25,27-8.17,42.12c1.43,6.55,5.54,14.6,13.2,16.22c0,0,3.86,0.74,4.52,0.76c-0.06,0-1.31,19.29-1.31,19.29l1.3,1.85
			c6.65,1.28,14.32-1.42,19.09-5.69c0-1.14,0-3.13-1.3-3.99c-4.91-3.41-10.14,2.03-14.33,3.17c0.28-5.07,0.69-9.2,1.56-14.12
			c3.05-0.05,5.59-0.1,8.18-0.66c7.55-2.06,9.03-5.42,12.93-10.47c3.31-8.57,3.88-18.6,3.63-27.87c5.49-0.85,10.79-1.01,15.41-3.86
			C574.17,80.17,573.3,79.46,573.16,78.75z M548.99,110.83c-4.59,6.32-11.49,8.7-18.99,7.75c-4.96-0.12-10.16-1.43-12.58-6.44
			c-6.05-15.85,1.21-32.05,5.68-46.47c2.06-5.36,6.53-11.08,13.06-11.68c4.96-0.24,9.19,3.81,11.49,7.87
			c2.06,5.12,2.79,6.69,3.85,13.39c0,0,0.71,3.32,0.98,3.89c0.04,0.24,0.04,0.42,0.14,0.66c-4.88,0.56-9.55,0.37-13.28-2.6
			c-0.58,0.29-1.59,1.34-1.73,2.2c2.72,5.21,9.34,5.84,15.49,5.44C553.6,93.89,551.79,102.85,548.99,110.83z"/>
		<path class="st1" d="M537.54,65.91c0-1.57-1.73-2.42-3.18-2.42c-2.31,1.28-4.77,3.13-4.33,5.98c0.29,1.71,2.46,3.56,4.33,2.56
			C536.67,71.03,538.12,68.61,537.54,65.91z"/>
		<polygon class="st1" points="555.97,31.61 551.08,25.1 532.99,38.71 536.17,43.65 		"/>
	</g>
	<path d="M264.49,201.5h31.67v9.57h-31.67v19.15h33.71v10.79h-46.74v-67.93h46.44v10.79h-33.4V201.5z"/>
	<path d="M503.15,241.02h-13.04V184.5h-19.65v-11.41h52.75v11.41h-20.06V241.02z"/>
	<path d="M769.55,192.95v-1.22c0-7.43-2.14-8.96-12.63-8.96c-12.32,0-14.77,1.53-14.77,9.27c0,4.89,1.22,7.13,4.48,8.15
		c1.73,0.51,2.34,0.51,12.93,1.12c11.41,0.71,15.28,1.43,18.53,3.77c4.18,2.85,5.6,6.82,5.6,15.48c0,8.45-1.22,13.04-4.18,15.99
		c-4.07,3.97-9.27,5.09-23.42,5.09c-12.32,0-16.5-0.71-20.98-3.36c-2.55-1.53-4.68-4.79-5.4-8.35c-0.61-2.95-0.71-4.99-0.81-10.39
		h12.53c0,5.09,0.31,6.82,1.43,8.55c1.63,2.75,3.26,3.06,13.85,3.06c7.64,0,9.78-0.31,11.71-1.83c1.73-1.22,2.44-3.87,2.44-8.55
		c0-4.48-1.02-6.62-3.77-7.54c-1.63-0.61-1.63-0.61-12.93-1.32c-11.61-0.71-14.05-1.12-17.52-2.75c-5.4-2.65-7.54-7.54-7.54-16.91
		c0-8.04,1.73-13.04,5.4-15.68c4.18-3.16,9.47-4.07,22.1-4.07c12.73,0,18.23,1.32,21.59,5.09c2.65,2.95,3.87,7.03,3.87,12.93v2.44
		H769.55z"/>
	<path d="M1064.73,201.5h31.67v9.57h-31.67v19.15h33.71v10.79h-46.74v-67.93h46.44v10.79h-33.4V201.5z"/>
	<g>
		<path d="M325.06,201.14c-0.28-3.98-0.9-4.38-7.31-4.38s-7.38,0.54-7.38,4.31c0,2.43,0.55,3.57,1.93,3.98
			c0.76,0.27,0.76,0.27,6.48,0.54c8.14,0.4,8.97,0.54,10.69,1.89c1.86,1.42,2.83,3.91,2.83,7.28s-0.97,5.93-2.76,7.41
			c-2.14,1.75-5.24,2.36-11.87,2.36c-10.49,0-13.87-2.22-13.87-9.03v-1.35h6.55c-0.07,0.47-0.07,1.01-0.07,1.21
			c0,3.77,1.38,4.65,7.59,4.65c6.55,0,8.07-0.94,8.07-4.92c0-3.37-0.97-4.31-4.62-4.38c-5.17-0.07-10-0.4-11.93-0.94
			c-3.79-0.94-5.31-3.37-5.31-8.36c0-7.28,2.9-9.17,13.94-9.17c10.49,0,13.31,1.89,13.25,8.9H325.06z"/>
		<path d="M365.48,212.39c0,4.65-0.41,6.61-1.66,8.36c-1.93,2.76-5.1,3.77-12.21,3.77c-11.93,0-14.76-3.17-14.76-16.38
			c0-12.47,3.1-15.91,14.56-15.91c7.24,0,11.11,1.48,12.62,4.85c0.69,1.55,0.97,3.17,0.97,6.27h-6.28c0.07-4.99-1.31-6.13-7.52-6.13
			c-6.9,0-7.86,1.42-7.86,11.25c0,4.85,0.48,7.89,1.59,9.37c0.9,1.21,2.9,1.68,7.17,1.68c6.07,0,7.11-1.01,7.11-7.14H365.48z"/>
		<path d="M396.04,194.67c2.48,2.16,3.45,5.73,3.45,13.08c0,14.02-2.41,16.78-14.83,16.78c-7.17,0-10.62-1.08-12.49-3.91
			c-1.66-2.43-2.21-5.59-2.21-12.74c0-12.81,2.62-15.64,14.62-15.64C391.14,192.24,393.9,192.85,396.04,194.67z M376.52,208.08
			c0,10.31,0.83,11.46,8.28,11.46c7.17,0,8.14-1.35,8.14-11.39c0-9.71-0.9-10.92-8.21-10.92
			C377.48,197.23,376.52,198.51,376.52,208.08z"/>
		<path d="M411.84,224.12h-6.35v-44.95h6.35V224.12z"/>
		<path d="M419.15,201.61c0.07-3.17,0.34-4.65,1.24-6.07c1.59-2.36,5.04-3.3,12.07-3.3c10.9,0,14,2.49,14,11.19v20.69h-6.35
			l0.35-3.84l-0.14-0.07c-1.86,3.3-4.35,4.31-10.55,4.31c-8.83,0-11.93-2.56-11.93-9.64c0-3.57,1.03-6.54,2.76-7.82
			c1.86-1.35,4.97-2.09,9.31-2.09c3.38,0,6.07,0.34,7.8,1.08c1.03,0.4,1.66,1.01,2.28,2.29h0.14v-4.45c0-6.07-1.24-7.35-7.45-7.35
			c-4.62,0-6.42,0.74-6.9,2.7c-0.07,0.27-0.14,1.08-0.21,2.36H419.15z M424.39,214.21c0,4.58,1.31,5.59,7.38,5.59
			c6.42,0,8.49-1.28,8.49-5.12c0-4.18-1.79-5.32-8.07-5.32S424.39,210.3,424.39,214.21z"/>
	</g>
	<g>
		<path d="M554.63,214.28v1.21c0,6.61-3.69,9.03-13.75,9.03c-12.25,0-14.98-3.03-14.98-16.31c0-12.81,2.94-15.97,14.85-15.97
			c8.01,0,11.36,1.68,13,6.4c0.75,2.29,0.89,4.04,0.89,10.85h-22.31v0.94c0,7.62,1.44,9.23,8.21,9.23c6.71,0,7.73-0.74,7.73-5.39
			H554.63z M545.74,186.31l-1.78,3.03l-12.04-6l2.81-4.65L545.74,186.31z M548.34,205.32c-0.07-4.04-0.14-4.45-0.62-5.66
			c-0.75-2.02-2.53-2.7-7.12-2.7c-6.98,0-8.14,1.21-8.21,8.36H548.34z"/>
		<path d="M587.95,212.39c0,4.65-0.41,6.61-1.64,8.36c-1.92,2.76-5.06,3.77-12.11,3.77c-11.84,0-14.64-3.17-14.64-16.38
			c0-12.47,3.08-15.91,14.44-15.91c7.18,0,11.02,1.48,12.52,4.85c0.68,1.55,0.96,3.17,0.96,6.27h-6.23c0.07-4.99-1.3-6.13-7.46-6.13
			c-6.84,0-7.8,1.42-7.8,11.25c0,4.85,0.48,7.89,1.57,9.37c0.89,1.21,2.87,1.68,7.12,1.68c6.02,0,7.05-1.01,7.05-7.14H587.95z"/>
		<path d="M599.44,192.64l-0.21,4.85l0.14,0.07c1.51-3.64,4.72-5.32,10.19-5.32c5.2,0,8.76,1.35,10.33,4.04
			c0.82,1.42,1.09,3.03,1.09,6.87v20.96h-6.29v-19.48c0-6.2-1.03-7.35-6.64-7.35c-6.09,0-8.62,2.36-8.62,8.02v18.8h-6.29v-31.47
			H599.44z"/>
		<path d="M634.26,185.03h-6.29v-5.86h6.29V185.03z M634.26,224.12h-6.29v-31.47h6.29V224.12z"/>
		<path d="M668.68,212.39c0,4.65-0.41,6.61-1.64,8.36c-1.92,2.76-5.06,3.77-12.11,3.77c-11.84,0-14.64-3.17-14.64-16.38
			c0-12.47,3.08-15.91,14.44-15.91c7.18,0,11.02,1.48,12.52,4.85c0.68,1.55,0.96,3.17,0.96,6.27h-6.23c0.07-4.99-1.3-6.13-7.46-6.13
			c-6.84,0-7.8,1.42-7.8,11.25c0,4.85,0.48,7.89,1.57,9.37c0.89,1.21,2.87,1.68,7.12,1.68c6.02,0,7.05-1.01,7.05-7.14H668.68z"/>
		<path d="M674.42,201.61c0.07-3.17,0.34-4.65,1.23-6.07c1.57-2.36,4.99-3.3,11.97-3.3c10.81,0,13.89,2.49,13.89,11.19v20.69h-6.29
			l0.34-3.84l-0.14-0.07c-1.85,3.3-4.31,4.31-10.47,4.31c-8.76,0-11.84-2.56-11.84-9.64c0-3.57,1.03-6.54,2.74-7.82
			c1.85-1.35,4.93-2.09,9.24-2.09c3.35,0,6.02,0.34,7.73,1.08c1.03,0.4,1.64,1.01,2.26,2.29h0.14v-4.45c0-6.07-1.23-7.35-7.39-7.35
			c-4.58,0-6.36,0.74-6.84,2.7c-0.07,0.27-0.14,1.08-0.21,2.36H674.42z M679.62,214.21c0,4.58,1.3,5.59,7.32,5.59
			c6.36,0,8.42-1.28,8.42-5.12c0-4.18-1.78-5.32-8.01-5.32C681.13,209.36,679.62,210.3,679.62,214.21z"/>
	</g>
	<g>
		<path d="M818.15,224.12h-6.29l0.41-4.79l-0.14-0.07c-1.64,3.64-4.79,5.26-10.4,5.26c-7.59,0-10.88-3.24-10.88-10.85v-21.03h6.29
			v20.08c0,5.39,1.23,6.74,6.36,6.74c6.36,0,8.35-2.16,8.35-9.23v-17.59h6.29V224.12z"/>
		<path d="M831.42,192.64l-0.27,4.45l0.14,0.07c1.78-3.57,4.52-4.92,9.85-4.92c4.65,0,7.87,1.01,9.65,3.03
			c2.39,2.63,3.15,5.8,3.15,13.01c0,7.48-0.96,11.32-3.35,13.61c-1.78,1.75-4.79,2.63-8.83,2.63c-5.95,0-8.89-1.42-10.19-4.79
			l-0.14,0.07v17.79h-6.29v-44.95H831.42z M831.56,209.49c0,7.68,1.85,9.97,8.14,9.97c6.5,0,7.73-1.82,7.73-11.19
			c0-9.1-1.3-10.99-7.73-10.99C832.72,197.29,831.56,198.98,831.56,209.49z"/>
		<path d="M887.66,214.28v1.21c0,6.61-3.7,9.03-13.75,9.03c-12.25,0-14.98-3.03-14.98-16.31c0-12.81,2.94-15.97,14.85-15.97
			c8,0,11.36,1.68,13,6.4c0.75,2.29,0.89,4.04,0.89,10.85h-22.31v0.94c0,7.62,1.44,9.23,8.21,9.23c6.71,0,7.73-0.74,7.73-5.39
			H887.66z M881.36,205.32c-0.07-4.04-0.14-4.45-0.62-5.66c-0.75-2.02-2.53-2.7-7.12-2.7c-6.98,0-8.14,1.21-8.21,8.36H881.36z"/>
		<path d="M899.9,192.64l-0.48,4.04l0.14,0.07c2.05-3.44,4.45-4.72,8.89-4.72c6.09,0,8.62,2.83,8.62,9.71c0,0.27,0,1.28-0.07,2.22
			h-5.95c0.07-0.94,0.07-1.48,0.07-2.09c0-3.64-1.16-4.85-4.58-4.85c-2.94,0-4.99,1.08-5.95,3.03c-0.48,1.15-0.68,2.49-0.68,5.33
			v18.74h-6.29v-31.47H899.9z"/>
		<path d="M927.54,185.03h-6.29v-5.86h6.29V185.03z M927.54,224.12h-6.29v-31.47h6.29V224.12z"/>
		<path d="M959.42,194.67c2.46,2.16,3.42,5.73,3.42,13.08c0,14.02-2.4,16.78-14.71,16.78c-7.12,0-10.54-1.08-12.38-3.91
			c-1.64-2.43-2.19-5.59-2.19-12.74c0-12.81,2.6-15.64,14.5-15.64C954.56,192.24,957.3,192.85,959.42,194.67z M940.06,208.08
			c0,10.31,0.82,11.46,8.21,11.46c7.12,0,8.07-1.35,8.07-11.39c0-9.71-0.89-10.92-8.14-10.92
			C941.02,197.23,940.06,198.51,940.06,208.08z"/>
		<path d="M975.08,192.64l-0.48,4.04l0.14,0.07c2.05-3.44,4.45-4.72,8.89-4.72c6.09,0,8.62,2.83,8.62,9.71c0,0.27,0,1.28-0.07,2.22
			h-5.95c0.07-0.94,0.07-1.48,0.07-2.09c0-3.64-1.16-4.85-4.58-4.85c-2.94,0-4.99,1.08-5.95,3.03c-0.48,1.15-0.68,2.49-0.68,5.33
			v18.74h-6.29v-31.47H975.08z"/>
	</g>
	<g>
		<path d="M1035.2,221.3h-4.25l0.14-3.17l-0.09-0.05c-1.13,2.51-3.02,3.49-6.9,3.49c-3.07,0-5.34-0.7-6.61-2.09
			c-1.56-1.67-2.08-3.96-2.08-9.4c0-4.84,0.52-7.03,2.13-8.8c1.23-1.3,3.35-2,6.38-2c3.97,0,5.95,0.93,6.85,3.21l0.09-0.05v-12.19
			h4.35V221.3z M1021.12,203.8c-0.85,0.88-1.28,2.89-1.28,6.24c0,6.75,0.9,8.1,5.39,8.1c4.72,0,5.62-1.3,5.62-8.24
			c0-5.68-1.13-7.12-5.67-7.12C1023.25,202.78,1021.74,203.15,1021.12,203.8z"/>
		<path d="M1044.83,195.24c0,3.68-0.95,4.84-4.02,4.84l-0.95-0.05v-2.09c1.8-0.05,2.32-0.51,2.32-2.09v-0.7h-1.84v-4.89h4.49V195.24
			z"/>
	</g>
	<g>
		<path d="M1112.65,192.64l-0.21,4.85l0.14,0.07c1.52-3.64,4.76-5.32,10.29-5.32c5.25,0,8.84,1.35,10.42,4.04
			c0.83,1.42,1.1,3.03,1.1,6.87v20.96h-6.35v-19.48c0-6.2-1.04-7.35-6.7-7.35c-6.14,0-8.7,2.36-8.7,8.02v18.8h-6.35v-31.47H1112.65z
			"/>
		<path d="M1169.25,225.4c0,9.77-3.45,12.74-14.7,12.74c-6.9,0-10.49-1.28-12.08-4.25c-0.76-1.42-1.04-2.83-1.04-6.27h6.08
			c0.07,4.79,1.1,5.59,7.39,5.59c6.14,0,8.01-1.55,8.01-6.74v-6.74h-0.14c-1.38,3.3-4.35,4.72-9.87,4.72
			c-4.42,0-7.73-1.08-9.73-3.17c-2.21-2.43-2.97-5.46-2.97-12.74c0-7.62,0.76-10.85,3.18-13.34c1.93-2.02,5.11-2.96,9.59-2.96
			c5.66,0,8.35,1.35,10.08,5.19l0.14-0.07l-0.28-4.72h6.35V225.4z M1146.75,207.88c0,9.84,1.17,11.53,7.94,11.53
			c6.7,0,8.08-1.96,8.08-11.66c0-8.63-1.45-10.45-8.15-10.45C1148.06,197.29,1146.75,198.98,1146.75,207.88z"/>
		<path d="M1182.64,185.03h-6.35v-5.86h6.35V185.03z M1182.64,224.12h-6.35v-31.47h6.35V224.12z"/>
		<path d="M1196.1,192.64l-0.21,4.85l0.14,0.07c1.52-3.64,4.76-5.32,10.29-5.32c5.25,0,8.84,1.35,10.42,4.04
			c0.83,1.42,1.1,3.03,1.1,6.87v20.96h-6.35v-19.48c0-6.2-1.04-7.35-6.7-7.35c-6.14,0-8.7,2.36-8.7,8.02v18.8h-6.35v-31.47H1196.1z"
			/>
		<path d="M1240.98,226.01c-0.9,3.5-2.21,6.74-3.17,8.29c-1.73,2.56-4.62,3.84-8.84,3.84c-0.9,0-1.45-0.07-2.49-0.13v-4.79
			c0.55,0.07,1.17,0.13,1.38,0.13c2.14,0,3.59-0.67,4.35-2.02c0.97-1.62,1.86-4.25,2.49-7.21h-2.97l-11.04-31.47h6.77l4.49,13.68
			l2.21,6.81l1.1,3.44l1.04,3.37h0.21l0.76-3.37l0.83-3.44l1.66-6.81l3.38-13.68h6.63L1240.98,226.01z"/>
		<path d="M1280.81,214.28v1.21c0,6.61-3.73,9.03-13.88,9.03c-12.36,0-15.12-3.03-15.12-16.31c0-12.81,2.97-15.97,14.98-15.97
			c8.08,0,11.46,1.68,13.12,6.4c0.76,2.29,0.9,4.04,0.9,10.85h-22.5v0.94c0,7.62,1.45,9.23,8.28,9.23c6.76,0,7.8-0.74,7.8-5.39
			H1280.81z M1274.46,205.32c-0.07-4.04-0.14-4.45-0.62-5.66c-0.76-2.02-2.55-2.7-7.18-2.7c-7.04,0-8.21,1.21-8.28,8.36H1274.46z"/>
		<path d="M1293.16,192.64l-0.48,4.04l0.14,0.07c2.07-3.44,4.49-4.72,8.97-4.72c6.14,0,8.7,2.83,8.7,9.71c0,0.27,0,1.28-0.07,2.22
			h-6.01c0.07-0.94,0.07-1.48,0.07-2.09c0-3.64-1.17-4.85-4.62-4.85c-2.97,0-5.04,1.08-6.01,3.03c-0.48,1.15-0.69,2.49-0.69,5.33
			v18.74h-6.35v-31.47H1293.16z"/>
		<path d="M1321.05,185.03h-6.35v-5.86h6.35V185.03z M1321.05,224.12h-6.35v-31.47h6.35V224.12z"/>
		<path d="M1328.37,201.61c0.07-3.17,0.35-4.65,1.24-6.07c1.59-2.36,5.04-3.3,12.08-3.3c10.91,0,14.01,2.49,14.01,11.19v20.69h-6.35
			l0.35-3.84l-0.14-0.07c-1.86,3.3-4.35,4.31-10.56,4.31c-8.84,0-11.94-2.56-11.94-9.64c0-3.57,1.04-6.54,2.76-7.82
			c1.86-1.35,4.97-2.09,9.32-2.09c3.38,0,6.07,0.34,7.8,1.08c1.04,0.4,1.66,1.01,2.28,2.29h0.14v-4.45c0-6.07-1.24-7.35-7.46-7.35
			c-4.62,0-6.42,0.74-6.9,2.7c-0.07,0.27-0.14,1.08-0.21,2.36H1328.37z M1333.61,214.21c0,4.58,1.31,5.59,7.39,5.59
			c6.42,0,8.49-1.28,8.49-5.12c0-4.18-1.79-5.32-8.08-5.32C1335.13,209.36,1333.61,210.3,1333.61,214.21z"/>
	</g>
</g>
</svg>
